<?xml version="1.0" encoding="utf-8"?>
<!-- Generator: Adobe Illustrator 24.2.0, SVG Export Plug-In . SVG Version: 6.00 Build 0)  -->
<svg version="1.1" id="Layer_1" xmlns="http://www.w3.org/2000/svg" xmlns:xlink="http://www.w3.org/1999/xlink" x="0px" y="0px"
	 viewBox="0 0 141.96 145.48" style="enable-background:new 0 0 141.96 145.48;" xml:space="preserve">
<style type="text/css">
	.st0{display:none;}
	.st1{display:inline;}
	.st2{fill:#282828;}
</style>
<path id="SVGID_x5F_1_x5F_" style="fill:none;" d="M379.91,29.05c0-22.91,18.57-41.48,41.48-41.48s41.48,18.57,41.48,41.48
	s-18.57,41.48-41.48,41.48S379.91,51.96,379.91,29.05z"/>
<text><textPath  xlink:href="#SVGID_x5F_1_x5F_" startOffset="2242.3633%">
<tspan  style="font-family:'MyriadPro-Regular'; font-size:27px;">WELCOME TO PORTFOLIO</tspan></textPath>
</text>
<g class="st0">
	<path class="st1" d="M164.76,183.68l-7.02,15.9l-1.81-1.42l3.68-7.95c0.9-1.96,1.84-3.89,2.61-5.36l-0.04-0.03
		c-1.25,1.15-2.9,2.4-4.69,3.76l-7.01,5.31l-1.79-1.4l3.66-8c0.86-1.87,1.74-3.72,2.63-5.27l-0.04-0.03
		c-1.42,1.24-2.95,2.42-4.65,3.75l-6.99,5.32l-1.75-1.37l14.15-10.32l1.79,1.4l-3.74,8.22c-0.91,2.02-1.65,3.53-2.52,5.01l0.04,0.03
		c1.27-1.13,2.58-2.2,4.41-3.53l7.3-5.43L164.76,183.68z"/>
	<path class="st1" d="M141.01,168.94l3.37,5.61l5.21-3.13l-3.76-6.26l1.56-0.94l4.88,8.12l-14.44,8.68l-4.69-7.8l1.56-0.94
		l3.57,5.93l4.56-2.74l-3.37-5.61L141.01,168.94z"/>
	<path class="st1" d="M130.63,167.17l-0.59-2.09l14.45-4.11l-1.97-6.93l1.76-0.5l2.56,9.02L130.63,167.17z"/>
	<path class="st1" d="M143.52,141.44c0.41,0.79,0.84,2.39,0.87,4.44c0.08,4.75-2.86,8.37-8.39,8.46c-5.27,0.09-8.91-3.43-8.99-8.65
		c-0.03-2.1,0.39-3.43,0.68-4.01l1.78,0.5c-0.39,0.83-0.67,2.01-0.64,3.41c0.07,3.95,2.63,6.53,7.06,6.46
		c4.12-0.07,6.73-2.49,6.67-6.58c-0.02-1.32-0.32-2.67-0.76-3.54L143.52,141.44z"/>
	<path class="st1" d="M140.64,124.08c5.5,1.85,7.29,6.17,5.91,10.25c-1.42,4.22-5.69,6.08-10.52,4.45
		c-5.07-1.71-7.33-5.98-5.89-10.24C131.61,124.18,135.9,122.48,140.64,124.08z M136.73,136.56c3.41,1.15,7.09,0.33,8.19-2.92
		c1.1-3.27-1.29-6.13-4.91-7.35c-3.18-1.07-7.05-0.53-8.21,2.91C130.64,132.61,133.22,135.38,136.73,136.56z"/>
	<path class="st1" d="M153.4,110.13c-1.83-1.48-4.03-3.26-5.57-4.69l-0.05,0.06c1.08,1.75,2.17,3.68,3.33,5.86l4.08,7.68l-1.1,1.23
		l-7.79-3.35c-2.3-1-4.37-1.95-6.17-2.94l-0.03,0.04c1.53,1.44,3.54,3.43,5.32,5.23l5.07,5.17l-1.39,1.54l-11.73-12.15l1.86-2.06
		l7.98,3.32c2.01,0.87,3.77,1.68,5.35,2.54l0.05-0.06c-0.98-1.45-1.95-3.14-3.03-5.12l-4.04-7.69l1.86-2.06l13.22,10.5l-1.42,1.58
		L153.4,110.13z"/>
	<path class="st1" d="M166.7,101.53l-5.8,3.04l2.82,5.38l6.46-3.39l0.85,1.62l-8.39,4.4l-7.83-14.92l8.06-4.23l0.85,1.62l-6.13,3.22
		l2.47,4.72l5.8-3.04L166.7,101.53z"/>
	<path class="st1" d="M177.91,91.4l-5.09,0.6l-0.22-1.84l12.39-1.45l0.22,1.84l-5.11,0.6l1.75,14.9l-2.18,0.26L177.91,91.4z"/>
	<path class="st1" d="M202.72,99.64c-1.1,5.7-5.14,8.05-9.36,7.24c-4.37-0.84-6.79-4.82-5.82-9.83c1.01-5.25,4.94-8.06,9.36-7.21
		C201.41,90.7,203.66,94.73,202.72,99.64z M189.82,97.43c-0.68,3.54,0.62,7.07,3.99,7.72c3.39,0.65,5.9-2.1,6.63-5.85
		c0.63-3.29-0.42-7.06-3.98-7.74C192.92,90.88,190.52,93.8,189.82,97.43z"/>
	<path class="st1" d="M216.64,97.94c0.95,0.49,2.14,1.19,3.54,2.24c1.72,1.29,2.68,2.63,2.95,3.95c0.26,1.19-0.03,2.5-0.93,3.71
		c-0.91,1.22-1.99,1.91-3.2,2.1c-1.65,0.29-3.53-0.33-5.23-1.6c-0.52-0.39-0.99-0.77-1.31-1.17l-4.04,5.41l-1.74-1.3L216.64,97.94z
		 M213.51,105.75c0.31,0.38,0.76,0.78,1.34,1.22c2.1,1.57,4.15,1.51,5.54-0.35c1.33-1.78,0.71-3.59-1.21-5.02
		c-0.76-0.57-1.39-0.94-1.75-1.09L213.51,105.75z"/>
	<path class="st1" d="M231.43,125.62c-4.8,3.26-9.32,2.07-11.74-1.49c-2.5-3.68-1.4-8.21,2.82-11.07c4.43-3,9.19-2.22,11.72,1.51
		C236.82,118.37,235.57,122.81,231.43,125.62z M223.86,114.96c-2.98,2.02-4.55,5.45-2.63,8.28c1.94,2.86,5.66,2.69,8.83,0.54
		c2.77-1.88,4.69-5.29,2.65-8.29C230.69,112.5,226.92,112.88,223.86,114.96z"/>
	<path class="st1" d="M240.59,127.79c0.5,1.01,1.02,2.5,1.41,3.95c0.59,2.25,0.57,3.81-0.08,5.06c-0.51,1.01-1.5,1.77-2.75,2.1
		c-2.15,0.57-3.94-0.41-4.97-1.97l-0.07,0.02c-0.1,1.37-1.06,2.43-2.65,3.26c-2.13,1.13-3.6,1.94-4.14,2.44l-0.58-2.17
		c0.39-0.39,1.69-1.12,3.6-2.12c2.12-1.08,2.74-2.17,2.3-4.1l-0.52-1.98l-7.06,1.87l-0.56-2.1L240.59,127.79z M233.73,131.86
		l0.57,2.15c0.59,2.25,2.2,3.35,4.07,2.86c2.1-0.56,2.62-2.32,2.05-4.55c-0.27-1.02-0.56-1.71-0.74-2.03L233.73,131.86z"/>
	<path class="st1" d="M242.14,147.81l0.14-5.12l1.85,0.05l-0.34,12.47l-1.85-0.05l0.14-5.15l-15-0.41l0.06-2.2L242.14,147.81z"/>
	<path class="st1" d="M242.65,160.48l-2.66,8.67l-1.74-0.54l2.03-6.59l-5.35-1.64l-1.87,6.09l-1.72-0.53l1.87-6.09l-7.29-2.24
		l0.64-2.08L242.65,160.48z"/>
	<path class="st1" d="M221.96,182.7c-4.72-3.37-5.17-8.03-2.67-11.52c2.59-3.62,7.21-4.16,11.36-1.19
		c4.35,3.11,5.27,7.85,2.65,11.51C230.62,185.23,226.03,185.6,221.96,182.7z M229.33,171.9c-2.93-2.09-6.69-2.38-8.68,0.41
		c-2,2.81-0.55,6.24,2.56,8.46c2.73,1.95,6.59,2.56,8.7-0.39C234,177.44,232.34,174.05,229.33,171.9z"/>
	<path class="st1" d="M223.43,191.97l-1.75,1.29l-8.91-12.1l-5.8,4.27l-1.08-1.47l7.55-5.56L223.43,191.97z"/>
	<path class="st1" d="M194.97,197.17c-1.92-5.47,0.39-9.54,4.45-10.96c4.2-1.47,8.29,0.75,9.98,5.56c1.77,5.05-0.21,9.45-4.46,10.94
		C200.6,204.23,196.62,201.89,194.97,197.17z M207.22,192.58c-1.19-3.4-4.1-5.79-7.33-4.66c-3.25,1.14-4.04,4.78-2.78,8.39
		c1.11,3.16,3.92,5.88,7.34,4.69C207.84,199.81,208.44,196.08,207.22,192.58z"/>
	<path class="st1" d="M189.41,205.58l-1.39-16.79l2.17-0.18l1.39,16.79L189.41,205.58z"/>
	<path class="st1" d="M169.57,195.41c0.98-5.72,4.98-8.15,9.21-7.43c4.39,0.75,6.88,4.68,6.02,9.71c-0.9,5.27-4.77,8.16-9.21,7.4
		C171.06,204.32,168.72,200.34,169.57,195.41z M182.5,197.35c0.61-3.55-0.77-7.06-4.15-7.64c-3.4-0.58-5.86,2.22-6.51,5.99
		c-0.57,3.3,0.57,7.05,4.14,7.66C179.54,203.97,181.88,201,182.5,197.35z"/>
</g>
<g>
	<path class="st2" d="M18.54,53.82c-4.26-0.36-8.52-0.66-12.77-0.89c0.24-0.51,0.44-0.92,0.58-1.24c0.16-0.35,0.34-0.77,0.55-1.25
		l7.64,0.77l3.03,0.25c-0.3-0.38-0.8-0.97-1.48-1.78c-0.69-0.81-1.2-1.39-1.53-1.75c-0.86-0.09-1.9-0.19-3.13-0.3
		c-1.23-0.11-2.28-0.18-3.14-0.23c0.22-0.45,0.4-0.84,0.56-1.18c0.17-0.38,0.35-0.78,0.53-1.2c1.08,0.19,2.16,0.34,3.24,0.46
		c-0.76-0.88-1.53-1.73-2.31-2.53c0.22-0.46,0.4-0.83,0.53-1.11c0.15-0.33,0.31-0.7,0.49-1.13c0.53,0.65,1.21,1.47,2.04,2.46
		c0.83,0.99,1.53,1.8,2.1,2.43c0.44,0.06,1.19,0.13,2.25,0.23c1.06,0.1,1.82,0.16,2.27,0.18l-3.6-4.23l-2.72-3.11l-0.94-1.04
		c0.24-0.51,0.44-0.92,0.58-1.23c0.16-0.34,0.34-0.76,0.55-1.25l2.3,2.86l5.02,6.07l1.17,1.38c-0.27,0.57-0.5,1.05-0.68,1.46
		c-0.19,0.43-0.41,0.92-0.65,1.48c-1.22-0.17-2.43-0.31-3.64-0.4c0.81,0.98,1.65,1.94,2.52,2.88c-0.27,0.57-0.5,1.06-0.69,1.47
		C19,52.77,18.78,53.26,18.54,53.82z"/>
	<path class="st2" d="M27.27,38.01l-2.29-2.48l-2.72-2.79l-2.51-2.5l-0.87-0.81c1-1.05,2.03-2.15,3.1-3.3l1.14-1.24l1.73-1.86
		l1.32,1.37l-0.6,0.58c-0.16,0.16-0.39,0.38-0.67,0.68c-0.28,0.29-0.56,0.59-0.85,0.9c-0.62,0.67-1.03,1.1-1.21,1.3
		c-0.18,0.2-0.45,0.5-0.8,0.91l2.18,2.23c0.56-0.57,1.12-1.16,1.67-1.76c0.38-0.41,1.02-1.12,1.9-2.12c0.36,0.4,0.8,0.86,1.32,1.4
		c-1.08,1.13-1.7,1.78-1.85,1.95c-0.47,0.51-1.05,1.15-1.72,1.93l2.31,2.35l0.67-0.7c0.19-0.21,0.63-0.68,1.31-1.43l1.27-1.42
		l0.83-0.97c0.46,0.51,0.9,0.97,1.32,1.4c-1.05,1.11-1.99,2.11-2.82,3l-1.96,2.12L27.27,38.01z"/>
	<path class="st2" d="M37.15,28.39c-0.81-1.57-1.76-3.3-2.85-5.17c-1.09-1.87-2.14-3.61-3.17-5.22c0.51-0.31,0.93-0.58,1.27-0.8
		c0.23-0.15,0.58-0.39,1.08-0.72c0.51,0.93,1.1,1.98,1.78,3.14l1.77,3.05c0.5,0.88,1.02,1.74,1.54,2.59l1.28-0.81
		c1.19-0.77,1.97-1.28,2.34-1.53c0.37-0.25,0.73-0.5,1.08-0.76c0.27,0.51,0.57,1.07,0.92,1.68c-1.3,0.83-2.41,1.54-3.33,2.14
		l-2.32,1.51L37.15,28.39z"/>
	<path class="st2" d="M56.59,16.75c0.1,0.69,0.21,1.39,0.35,2.09c-0.6,0.32-1.15,0.6-1.66,0.82c-0.51,0.22-0.96,0.4-1.34,0.52
		c-0.83,0.28-1.67,0.43-2.5,0.45c-0.84,0.02-1.64-0.12-2.42-0.41c-0.78-0.3-1.42-0.76-1.94-1.38s-0.91-1.36-1.2-2.21
		c-0.31-0.92-0.43-1.83-0.37-2.72c0.06-0.89,0.31-1.71,0.75-2.46c0.43-0.74,1.02-1.39,1.77-1.94c0.75-0.54,1.58-0.97,2.49-1.28
		c0.9-0.3,1.92-0.53,3.05-0.68c0.18,0.49,0.32,0.83,0.4,1.03l0.36,0.87c-0.68,0.04-1.24,0.11-1.68,0.18s-0.84,0.18-1.22,0.31
		c-0.59,0.2-1.13,0.48-1.62,0.85c-0.49,0.37-0.87,0.81-1.16,1.35c-0.29,0.54-0.45,1.12-0.49,1.75c-0.04,0.63,0.05,1.25,0.25,1.86
		c0.24,0.72,0.6,1.32,1.07,1.8s1.07,0.79,1.81,0.94c0.73,0.15,1.55,0.07,2.46-0.23C54.59,17.98,55.54,17.48,56.59,16.75z"/>
	<path class="st2" d="M68.33,5.41c0.87-0.03,1.71,0.07,2.52,0.29c0.81,0.22,1.53,0.59,2.17,1.11c0.64,0.52,1.12,1.14,1.46,1.85
		c0.34,0.71,0.52,1.55,0.54,2.51c0.03,0.9-0.1,1.77-0.38,2.6c-0.28,0.83-0.72,1.55-1.33,2.17c-0.61,0.61-1.36,1.07-2.25,1.39
		c-0.89,0.31-1.83,0.48-2.82,0.51c-0.94,0.03-1.84-0.08-2.71-0.32c-0.87-0.24-1.63-0.63-2.27-1.18c-0.64-0.54-1.1-1.18-1.39-1.9
		c-0.29-0.72-0.45-1.51-0.47-2.36c-0.03-0.93,0.12-1.83,0.43-2.69c0.31-0.86,0.79-1.58,1.43-2.15c0.64-0.58,1.39-1.02,2.26-1.33
		C66.38,5.61,67.32,5.44,68.33,5.41z M68.24,7.29c-0.88,0.02-1.65,0.25-2.29,0.67c-0.64,0.43-1.12,1-1.43,1.71
		c-0.31,0.71-0.46,1.48-0.43,2.3c0.02,0.76,0.2,1.46,0.54,2.09s0.84,1.11,1.51,1.43c0.67,0.32,1.39,0.47,2.16,0.45
		c0.58-0.02,1.13-0.13,1.65-0.35c0.52-0.21,0.97-0.53,1.34-0.95c0.37-0.42,0.65-0.92,0.82-1.5c0.18-0.58,0.26-1.18,0.24-1.8
		c-0.02-0.58-0.12-1.13-0.31-1.66c-0.19-0.53-0.47-0.98-0.84-1.35c-0.37-0.37-0.82-0.64-1.34-0.82C69.34,7.35,68.8,7.27,68.24,7.29z
		"/>
	<path class="st2" d="M79.31,17.96l0.82-1.82l2.67-6.47l1.11-2.83c0.79,0.27,1.38,0.46,1.74,0.57c0.29,0.09,0.84,0.26,1.62,0.5
		c-0.05,0.48-0.09,0.82-0.11,1.03c-0.02,0.2-0.03,0.54-0.03,0.99c0,0.46,0,1.02,0.01,1.68c0.01,1-0.01,1.98-0.05,2.93l-0.12,2.6
		l2.1-2.72l2.9-3.48c0.1-0.12,0.21-0.25,0.32-0.41c0.11-0.16,0.31-0.44,0.6-0.85c0.66,0.22,1.25,0.42,1.77,0.58
		c0.35,0.11,0.9,0.28,1.66,0.51c-0.59,1.58-1.21,3.34-1.87,5.28c-0.66,1.93-1.14,3.38-1.45,4.34c-0.15,0.46-0.33,1.05-0.54,1.75
		c-0.55-0.19-0.92-0.31-1.13-0.38c-0.29-0.09-0.68-0.21-1.16-0.35c0.21-0.56,0.39-1.02,0.51-1.39l1.73-4.94
		c0.24-0.7,0.47-1.39,0.69-2.07l0.21-0.68l-5.67,7.17l-0.68,0.88c-0.54-0.18-0.91-0.31-1.11-0.37c-0.25-0.08-0.65-0.2-1.19-0.36
		l0.2-5.62c0.01-0.2,0.01-0.62,0.02-1.27l0.02-1.87c0-0.18,0.01-0.32,0.01-0.43c0.01-0.11,0.03-0.36,0.06-0.74l-0.45,1.04
		c-0.14,0.33-0.36,0.89-0.67,1.67l-1.98,5.09c-0.09,0.25-0.22,0.63-0.39,1.13l-1.07-0.36C80.23,18.23,79.86,18.12,79.31,17.96z"/>
	<path class="st2" d="M96.91,24.7l2.13-2.62l2.37-3.1l2.11-2.84l0.68-0.98c1.18,0.83,2.42,1.7,3.71,2.59l1.39,0.95l2.09,1.44
		l-1.17,1.5l-0.66-0.51c-0.18-0.14-0.44-0.33-0.77-0.56c-0.33-0.24-0.67-0.47-1.01-0.71c-0.75-0.52-1.24-0.86-1.46-1.01
		c-0.22-0.15-0.56-0.37-1.01-0.66l-1.9,2.48c0.65,0.47,1.31,0.94,1.98,1.41c0.46,0.32,1.25,0.85,2.37,1.58
		c-0.34,0.41-0.74,0.91-1.19,1.5c-1.28-0.91-2.01-1.42-2.2-1.55c-0.57-0.39-1.29-0.87-2.15-1.43l-1.99,2.62l0.79,0.56
		c0.23,0.16,0.76,0.52,1.6,1.09l1.59,1.06l1.08,0.68c-0.44,0.53-0.83,1.03-1.2,1.51c-1.25-0.88-2.37-1.67-3.38-2.36l-2.38-1.64
		L96.91,24.7z"/>
	<path class="st2" d="M114.36,41.06l2.26-1.22l3.32-1.9l3.23-1.93l-0.33-0.52l-0.32-0.48l-0.3-0.45l-1.15-1.67
		c0.74-0.42,1.29-0.74,1.66-0.97c0.9,1.43,1.85,2.91,2.85,4.47l1.71,2.65l0.92,1.41c-0.73,0.4-1.29,0.72-1.67,0.97
		c-0.53-0.92-1.05-1.79-1.58-2.61l-0.37-0.57l-1.41,0.78l-5.34,3.12l-0.88,0.54c-0.36,0.22-0.74,0.46-1.13,0.71l-0.71-1.13
		C115.07,42.14,114.81,41.74,114.36,41.06z"/>
	<path class="st2" d="M133.42,53.32c0.25,0.84,0.37,1.68,0.36,2.51s-0.18,1.63-0.53,2.38c-0.35,0.75-0.82,1.38-1.42,1.88
		c-0.6,0.51-1.37,0.9-2.29,1.17c-0.87,0.25-1.74,0.35-2.61,0.3c-0.87-0.06-1.68-0.3-2.43-0.73c-0.75-0.44-1.38-1.04-1.91-1.83
		c-0.53-0.78-0.93-1.65-1.21-2.6c-0.26-0.9-0.39-1.8-0.38-2.71s0.2-1.73,0.56-2.49c0.36-0.76,0.86-1.37,1.48-1.83
		c0.63-0.46,1.34-0.81,2.16-1.05c0.89-0.26,1.79-0.35,2.71-0.27c0.91,0.08,1.72,0.36,2.44,0.83c0.72,0.47,1.34,1.08,1.86,1.85
		C132.73,51.49,133.13,52.35,133.42,53.32z M131.58,53.71c-0.25-0.85-0.66-1.53-1.24-2.05c-0.58-0.51-1.25-0.83-2.02-0.95
		c-0.77-0.12-1.55-0.06-2.34,0.17c-0.73,0.21-1.36,0.56-1.88,1.05c-0.53,0.49-0.86,1.09-1,1.83c-0.14,0.73-0.1,1.46,0.12,2.2
		c0.16,0.56,0.41,1.06,0.75,1.51c0.34,0.45,0.76,0.8,1.26,1.06c0.5,0.25,1.05,0.39,1.66,0.42c0.61,0.02,1.21-0.05,1.8-0.23
		c0.56-0.16,1.07-0.4,1.53-0.72c0.46-0.31,0.83-0.7,1.09-1.16c0.27-0.46,0.42-0.96,0.45-1.5S131.74,54.25,131.58,53.71z"/>
	<path class="st2" d="M124.17,74.86l1.91,0.6l6.74,1.9l2.94,0.77c-0.17,0.82-0.29,1.42-0.37,1.8c-0.06,0.3-0.16,0.86-0.3,1.67
		c-0.48,0-0.83,0.01-1.03,0.02c-0.2,0.01-0.53,0.04-0.99,0.09c-0.46,0.05-1.01,0.12-1.67,0.21c-0.99,0.13-1.96,0.22-2.92,0.29
		l-2.6,0.18l2.94,1.77l3.79,2.47c0.13,0.08,0.28,0.17,0.45,0.27c0.17,0.1,0.47,0.26,0.91,0.49c-0.14,0.68-0.27,1.29-0.37,1.83
		c-0.07,0.36-0.17,0.93-0.31,1.71c-1.64-0.4-3.46-0.82-5.46-1.24c-2-0.43-3.49-0.74-4.48-0.93c-0.48-0.09-1.08-0.2-1.8-0.33
		c0.12-0.57,0.2-0.96,0.24-1.16c0.06-0.3,0.13-0.7,0.21-1.19c0.58,0.15,1.06,0.26,1.44,0.35l5.11,1.14c0.72,0.16,1.43,0.3,2.13,0.44
		l0.7,0.13l-7.78-4.79l-0.95-0.57c0.12-0.56,0.2-0.94,0.24-1.15c0.05-0.26,0.12-0.67,0.22-1.23l5.6-0.46
		c0.2-0.01,0.62-0.06,1.26-0.13l1.86-0.19c0.18-0.02,0.32-0.03,0.43-0.04c0.11-0.01,0.36-0.02,0.74-0.03l-1.08-0.33
		c-0.35-0.1-0.92-0.25-1.74-0.47l-5.29-1.37c-0.26-0.06-0.65-0.15-1.17-0.25l0.23-1.11C124.01,75.8,124.07,75.42,124.17,74.86z"/>
	<path class="st2" d="M118.36,95.28c0.54,0.37,1.26,0.83,2.15,1.38c0.89,0.56,1.61,0.98,2.15,1.29l7.98-0.22
		c-0.32,0.58-0.57,1.03-0.74,1.36c-0.16,0.31-0.38,0.73-0.64,1.25c-0.66-0.05-1.52-0.07-2.58-0.07c-1.06,0.01-2.02-0.01-2.88-0.05
		l2.5,4.29c0.09,0.14,0.22,0.36,0.41,0.65c-0.28,0.5-0.52,0.94-0.72,1.33c-0.11,0.2-0.32,0.62-0.65,1.26l-4.04-7.58l-1.91-1.14
		c-0.56-0.34-1.33-0.78-2.3-1.31c0.3-0.55,0.52-0.95,0.66-1.2C117.86,96.25,118.07,95.84,118.36,95.28z"/>
	<path class="st2" d="M107.56,110.45l1.21,1.7l2.78,3.69l2.06,2.64c0.19,0.24,0.38,0.48,0.58,0.71c0.15,0.18,0.37,0.44,0.66,0.79
		c-0.58,0.47-1.06,0.85-1.42,1.15c-0.29,0.24-0.68,0.58-1.19,1.02c-0.5,0.44-0.9,0.79-1.21,1.04c-0.62,0.52-1.12,0.85-1.48,1.01
		c-0.39,0.16-0.79,0.23-1.21,0.21c-0.41-0.02-0.8-0.12-1.17-0.32c-0.41-0.22-0.78-0.52-1.1-0.91c-0.48-0.58-0.78-1.23-0.88-1.95
		c-0.11-0.72,0-1.41,0.32-2.07s0.79-1.25,1.42-1.77c0.31-0.25,0.66-0.5,1.06-0.72c0.49,0.39,0.97,0.73,1.43,1.04
		c-0.33,0.17-0.63,0.38-0.9,0.6c-0.37,0.31-0.65,0.63-0.83,0.98c-0.18,0.34-0.25,0.71-0.2,1.09c0.05,0.39,0.21,0.74,0.47,1.06
		c0.16,0.19,0.33,0.33,0.53,0.44c0.2,0.1,0.4,0.15,0.61,0.13c0.21-0.01,0.4-0.07,0.58-0.16c0.18-0.09,0.42-0.26,0.71-0.5
		c0.25-0.21,0.5-0.42,0.75-0.65c0.25-0.22,0.47-0.42,0.67-0.58c-0.68-0.93-1.34-1.81-1.99-2.63l-2.06-2.65
		c-0.73-0.94-1.28-1.62-1.63-2.05c-0.13-0.16-0.33-0.39-0.59-0.7l0.99-0.8C106.68,111.2,107.01,110.91,107.56,110.45z"/>
	<path class="st2" d="M95.55,132.61c-0.8,0.34-1.62,0.56-2.45,0.66c-0.83,0.1-1.64,0.02-2.43-0.24c-0.78-0.25-1.46-0.65-2.04-1.19
		c-0.57-0.54-1.05-1.25-1.43-2.13c-0.35-0.83-0.56-1.68-0.61-2.56c-0.05-0.87,0.1-1.71,0.44-2.5c0.34-0.79,0.87-1.5,1.58-2.12
		s1.53-1.12,2.44-1.51c0.86-0.37,1.74-0.6,2.64-0.7c0.9-0.1,1.74-0.01,2.54,0.26c0.79,0.27,1.46,0.69,1.99,1.25
		c0.53,0.57,0.97,1.24,1.3,2.02c0.37,0.86,0.56,1.74,0.59,2.66c0.02,0.91-0.15,1.75-0.54,2.52s-0.92,1.46-1.61,2.07
		C97.28,131.71,96.47,132.21,95.55,132.61z M94.94,130.83c0.81-0.35,1.44-0.84,1.88-1.47s0.68-1.34,0.71-2.12
		c0.03-0.78-0.12-1.55-0.44-2.3c-0.3-0.7-0.72-1.28-1.27-1.75c-0.54-0.46-1.19-0.72-1.93-0.77c-0.74-0.05-1.46,0.08-2.17,0.38
		c-0.53,0.23-1,0.54-1.41,0.93s-0.71,0.85-0.9,1.37c-0.19,0.53-0.27,1.09-0.22,1.7c0.05,0.6,0.2,1.19,0.44,1.76
		c0.23,0.53,0.53,1.01,0.89,1.43s0.79,0.74,1.28,0.95s1,0.3,1.54,0.27C93.89,131.18,94.42,131.05,94.94,130.83z"/>
	<path class="st2" d="M80.37,124.76c0.02,1.75,0.11,3.76,0.27,6.03c0.16,2.26,0.34,4.25,0.53,5.95c-0.7,0.07-1.29,0.13-1.76,0.18
		c-0.51,0.06-1,0.12-1.49,0.19c-0.48,0.07-1,0.14-1.54,0.2c-0.68,0.08-1.28,0.11-1.83,0.09c-0.54-0.02-1.03-0.14-1.48-0.37
		c-0.44-0.23-0.79-0.53-1.03-0.89s-0.4-0.81-0.45-1.33c-0.04-0.33-0.03-0.64,0.01-0.94c0.04-0.3,0.12-0.59,0.24-0.87
		c0.12-0.28,0.27-0.52,0.45-0.74c0.18-0.22,0.37-0.4,0.55-0.53c0.19-0.14,0.41-0.26,0.65-0.37c0.25-0.11,0.58-0.25,1-0.41
		l-0.72-1.09c-0.23-0.35-0.67-0.96-1.31-1.85l-1.05-1.45c-0.06-0.08-0.23-0.33-0.51-0.75c0.71-0.07,1.18-0.11,1.41-0.14
		c0.28-0.03,0.77-0.09,1.48-0.18l1.23,2.22c0.21,0.33,0.46,0.73,0.75,1.19l1.29,2c0.13,0.19,0.31,0.47,0.54,0.84
		c-0.4-0.03-0.76-0.02-1.08,0.02c-0.5,0.05-0.95,0.19-1.35,0.4c-0.4,0.21-0.69,0.5-0.87,0.86c-0.18,0.36-0.25,0.75-0.21,1.15
		c0.03,0.25,0.1,0.47,0.22,0.67s0.3,0.36,0.54,0.48c0.24,0.12,0.52,0.18,0.84,0.19c0.32,0.01,0.64-0.01,0.95-0.04
		c0.17-0.02,0.41-0.05,0.71-0.09c0.3-0.04,0.67-0.08,1.12-0.13l-0.24-3.61l-0.57-6.57l1.36-0.13
		C79.26,124.9,79.7,124.85,80.37,124.76z"/>
	<path class="st2" d="M63.63,125.29l-0.56,2.51l-0.73,3.76l-0.66,3.71l0.61,0.09l0.57,0.07l0.54,0.07l2.02,0.23
		c-0.17,0.83-0.28,1.46-0.35,1.89c-1.67-0.25-3.42-0.51-5.24-0.77l-3.12-0.44l-1.67-0.23c0.18-0.82,0.3-1.45,0.36-1.89
		c1.04,0.2,2.04,0.38,3.01,0.51l0.67,0.1l0.33-1.57l1.13-6.08l0.16-1.02c0.07-0.42,0.13-0.86,0.2-1.32l1.32,0.21
		C62.36,125.13,62.83,125.19,63.63,125.29z"/>
	<path class="st2" d="M53.15,123.16c-0.53,1.02-0.95,1.85-1.25,2.48c-0.5,1.05-1.2,2.57-2.09,4.56c-0.66,1.46-1.11,2.5-1.36,3.12
		l-0.31,0.76c-1.55-0.65-2.91-1.21-4.07-1.69l-2.28-0.92l-1.36-0.55c0.39-0.78,0.66-1.36,0.82-1.72l1.15,0.52l0.47,0.2l0.63,0.26
		l1.24,0.51l1.69,0.68l1.29-2.88l-1.37-0.59c-1.05-0.43-1.73-0.71-2.03-0.82l-1.11-0.44c0.3-0.61,0.56-1.18,0.78-1.69
		c0.93,0.41,1.68,0.73,2.24,0.96c0.7,0.29,1.47,0.59,2.3,0.9l1.56-3.56l0.31-0.73l0.17-0.42l1.24,0.53
		C51.85,122.65,52.31,122.83,53.15,123.16z"/>
	<path class="st2" d="M28.27,123.19c-0.68-0.54-1.26-1.16-1.74-1.85s-0.79-1.44-0.94-2.25c-0.15-0.81-0.12-1.6,0.08-2.36
		c0.2-0.76,0.6-1.52,1.2-2.27c0.56-0.71,1.22-1.29,1.96-1.75c0.75-0.46,1.55-0.73,2.41-0.8c0.86-0.08,1.73,0.05,2.62,0.39
		c0.88,0.33,1.71,0.81,2.49,1.43c0.73,0.58,1.36,1.25,1.87,1.99s0.84,1.53,0.98,2.36c0.14,0.83,0.09,1.61-0.16,2.35
		c-0.24,0.74-0.63,1.44-1.16,2.11c-0.58,0.73-1.27,1.32-2.06,1.78c-0.79,0.46-1.62,0.7-2.48,0.73c-0.86,0.03-1.72-0.12-2.58-0.44
		C29.88,124.29,29.05,123.82,28.27,123.19z M29.54,121.81c0.69,0.55,1.42,0.87,2.19,0.96c0.77,0.09,1.5-0.04,2.2-0.39
		c0.7-0.35,1.3-0.84,1.81-1.48c0.47-0.6,0.79-1.24,0.93-1.95c0.15-0.7,0.07-1.39-0.24-2.07c-0.31-0.67-0.76-1.25-1.36-1.73
		c-0.46-0.36-0.95-0.63-1.49-0.8c-0.54-0.17-1.08-0.22-1.64-0.14c-0.55,0.08-1.09,0.28-1.59,0.61c-0.51,0.33-0.96,0.74-1.34,1.22
		c-0.36,0.45-0.64,0.94-0.84,1.47c-0.2,0.53-0.27,1.05-0.23,1.58c0.05,0.53,0.21,1.02,0.5,1.48
		C28.74,121.05,29.1,121.46,29.54,121.81z"/>
	<path class="st2" d="M28.01,106.07c-1.54,0.88-3.22,1.91-5.04,3.07c-1.83,1.17-3.52,2.3-5.08,3.39c-0.34-0.49-0.62-0.9-0.85-1.23
		c-0.16-0.22-0.41-0.57-0.76-1.04c0.9-0.55,1.92-1.19,3.06-1.91l2.98-1.9c0.85-0.54,1.69-1.09,2.52-1.65l-0.86-1.24
		c-0.82-1.16-1.37-1.91-1.63-2.27c-0.27-0.36-0.53-0.71-0.8-1.05c0.5-0.29,1.04-0.62,1.64-0.99c0.88,1.26,1.64,2.34,2.28,3.23
		l1.61,2.25L28.01,106.07z"/>
	<path class="st2" d="M21.22,95.29c-1.9,0.7-3.83,1.45-5.79,2.24c-1.97,0.79-3.46,1.41-4.48,1.87l-0.85,0.4L9.5,98.45
		c-0.03-0.07-0.22-0.48-0.57-1.22c2.91-1.05,6.62-2.55,11.12-4.51l0.52,1.19C20.66,94.1,20.88,94.56,21.22,95.29z"/>
	<path class="st2" d="M4.61,83.29c-0.16-0.86-0.19-1.7-0.1-2.54c0.09-0.83,0.35-1.6,0.77-2.31s0.96-1.29,1.61-1.73
		c0.65-0.44,1.45-0.75,2.39-0.92c0.89-0.16,1.76-0.17,2.63-0.03c0.86,0.14,1.65,0.47,2.34,0.98c0.7,0.51,1.27,1.18,1.72,2.01
		c0.45,0.83,0.76,1.74,0.94,2.71c0.17,0.92,0.2,1.83,0.1,2.73c-0.1,0.9-0.37,1.7-0.81,2.42c-0.44,0.72-0.99,1.27-1.66,1.67
		c-0.67,0.4-1.42,0.67-2.26,0.83c-0.92,0.17-1.82,0.17-2.72-0.01c-0.9-0.18-1.68-0.54-2.34-1.08c-0.67-0.54-1.22-1.22-1.66-2.03
		C5.11,85.18,4.8,84.28,4.61,83.29z M6.48,83.08c0.16,0.87,0.5,1.59,1.02,2.16c0.52,0.57,1.16,0.96,1.91,1.15
		c0.75,0.2,1.54,0.22,2.34,0.07c0.75-0.14,1.41-0.42,1.98-0.85c0.57-0.43,0.96-1,1.18-1.71c0.21-0.71,0.25-1.45,0.11-2.2
		c-0.1-0.57-0.3-1.1-0.6-1.58c-0.29-0.48-0.67-0.88-1.14-1.18c-0.47-0.3-1.01-0.5-1.61-0.58c-0.6-0.08-1.21-0.07-1.82,0.04
		c-0.57,0.11-1.1,0.29-1.6,0.56C7.77,79.23,7.37,79.57,7.06,80c-0.31,0.43-0.51,0.91-0.6,1.45C6.37,81.99,6.38,82.53,6.48,83.08z"/>
</g>
<path id="SVGID_x5F_2_x5F_" style="fill:none;" d="M203.46-107.09c-16.28,24.99-49.73,32.05-74.72,15.77s-32.05-49.73-15.77-74.72
	s49.73-32.05,74.72-15.77S219.74-132.08,203.46-107.09z"/>
<text><textPath  xlink:href="#SVGID_x5F_2_x5F_" startOffset="9260.0732%">
<tspan  style="font-family:'ErasITC-Demi'; font-size:18px; letter-spacing:200;">WELCOME TO MY PORTFOLIO</tspan></textPath>
</text>
<path id="SVGID_x5F_3_x5F_" style="fill:none;" d="M-119.1,19.04c-16.28,24.99-49.73,32.05-74.72,15.77s-32.05-49.73-15.77-74.72
	s49.73-32.05,74.72-15.77S-102.82-5.95-119.1,19.04z"/>
<text><textPath  xlink:href="#SVGID_x5F_3_x5F_" startOffset="9260.0732%">
<tspan  style="font-family:'RubikScribble-Regular'; font-size:18px; letter-spacing:200;">WELCOME TO MY PORTFOLIO</tspan></textPath>
</text>
<path id="SVGID_x5F_4_x5F_" style="fill:none;" d="M31.42-84.78C15.14-59.8-18.31-52.74-43.3-69.02s-32.05-49.73-15.77-74.72
	s49.73-32.05,74.72-15.77S47.7-109.77,31.42-84.78z"/>
<text><textPath  xlink:href="#SVGID_x5F_4_x5F_" startOffset="9260.0732%">
<tspan  style="font-family:'MoiraiOne-Regular'; font-size:17px; letter-spacing:200;">WELCOME TO MY PORTFOLIO</tspan></textPath>
</text>
</svg>
