<?xml version="1.0" encoding="utf-8"?>
<!-- Generator: Adobe Illustrator 24.2.0, SVG Export Plug-In . SVG Version: 6.00 Build 0)  -->
<svg version="1.1" id="Layer_1" xmlns="http://www.w3.org/2000/svg" xmlns:xlink="http://www.w3.org/1999/xlink" x="0px" y="0px"
	 viewBox="0 0 60.8 63.4" style="enable-background:new 0 0 60.8 63.4;" xml:space="preserve">
<style type="text/css">
	.st0{display:none;fill:#2B4124;}
	.st1{fill:#2B4124;}
</style>
<polygon class="st0" points="59,29.6 34.7,29.6 51.9,12.4 49.5,10 32.3,27.2 32.3,2.9 28.9,2.9 28.9,27.2 11.8,10 9.4,12.4 
	26.5,29.6 2.3,29.6 2.3,33 26.5,33 9.4,50.1 11.8,52.5 28.9,35.4 28.9,59.6 32.3,59.6 32.3,35.4 49.5,52.5 51.9,50.1 34.7,33 59,33 
	"/>
<g>
	<path class="st1" d="M18.1,43.6C5.5,61.9-0.2,56.2,18.1,43.6L18.1,43.6z"/>
	<path class="st1" d="M43.2,43.6C61.5,56.2,55.8,61.9,43.2,43.6L43.2,43.6z"/>
	<path class="st1" d="M43.2,18.5C55.8,0.2,61.5,5.9,43.2,18.5L43.2,18.5z"/>
	<path class="st1" d="M36.8,33c2.3,4.2,4.4,7.7,6.4,10.6c-2.9-2-6.4-4.2-10.6-6.4c-0.7,1.4-1.3,2.8-2,4.3c-0.7-1.5-1.3-2.9-2-4.3
		c-4.2,2.3-7.7,4.4-10.6,6.4c2-2.9,4.2-6.4,6.4-10.6c-1.4-0.7-2.8-1.3-4.3-2c1.5-0.7,3-1.3,4.3-2c-2.3-4.2-4.4-7.7-6.4-10.6
		c2.9,2,6.4,4.2,10.6,6.4c0.7-1.4,1.3-2.8,2-4.3c0.7,1.5,1.3,3,2,4.3c4.2-2.3,7.7-4.4,10.6-6.4c-2,2.9-4.2,6.4-6.4,10.6
		c1.4,0.7,2.8,1.3,4.3,2C39.6,31.7,38.2,32.4,36.8,33z"/>
	<path class="st1" d="M18.1,18.5C-0.2,5.9,5.5,0.2,18.1,18.5L18.1,18.5z"/>
</g>
<path class="st0" d="M11.5,48.7c21.1-36.5-20.8-36.5,0.2,0c-21.1-36.5-42-0.2,0.1-0.2c-42.1,0-21.2,36.3-0.1-0.2
	c-21.1,36.5,20.8,36.5-0.2,0c21.1,36.5,42,0.2-0.1,0.2C53.6,48.5,32.6,12.3,11.5,48.7z"/>
</svg>
