<?xml version="1.0" encoding="utf-8"?>
<!-- Generator: Adobe Illustrator 26.2.1, SVG Export Plug-In . SVG Version: 6.00 Build 0)  -->
<svg version="1.1" id="레이어_1" xmlns="http://www.w3.org/2000/svg" xmlns:xlink="http://www.w3.org/1999/xlink" x="0px"
	 y="0px" viewBox="0 0 32 32" style="enable-background:new 0 0 32 32;" xml:space="preserve">
<style type="text/css">
	.st0{display:none;}
	.st1{display:inline;fill:#001E36;}
	.st2{display:inline;fill:#31A8FF;}
	.st3{display:inline;fill:#330000;}
	.st4{display:inline;fill:#FF9A00;}
	.st5{display:inline;fill:#00005B;}
	.st6{display:inline;fill:#9999FF;}
	.st7{display:inline;fill:#49021F;}
	.st8{display:inline;fill:#FF3366;}
	.st9{display:inline;fill:#470137;}
	.st10{display:inline;fill:#FF61F6;}
	.st11{display:inline;fill:#47937D;}
	.st12{display:inline;fill:#FEFFFE;}
	.st13{display:inline;fill-rule:evenodd;clip-rule:evenodd;fill:#1ABCFE;}
	.st14{display:inline;fill-rule:evenodd;clip-rule:evenodd;fill:#0ACF83;}
	.st15{display:inline;fill-rule:evenodd;clip-rule:evenodd;fill:#FF7262;}
	.st16{display:inline;fill-rule:evenodd;clip-rule:evenodd;fill:#F24E1E;}
	.st17{display:inline;fill-rule:evenodd;clip-rule:evenodd;fill:#A259FF;}
	.st18{display:inline;fill-rule:evenodd;clip-rule:evenodd;fill:#FDBD39;}
	.st19{display:inline;fill-rule:evenodd;clip-rule:evenodd;fill:#F69833;}
	.st20{display:inline;fill-rule:evenodd;clip-rule:evenodd;fill:#FECF33;}
	.st21{display:inline;fill-rule:evenodd;clip-rule:evenodd;fill:#EE6723;}
	.st22{display:inline;fill:#1172B8;}
	.st23{display:inline;fill:#33AADD;}
	.st24{display:inline;fill:#FFFFFF;}
	.st25{fill:#E44D26;}
	.st26{fill:#F16529;}
	.st27{fill:#FFFFFF;}
	.st28{display:inline;fill:#FFCA28;}
	.st29{display:inline;fill:#3E3E3E;}
	.st30{display:inline;fill:#0968AC;}
	.st31{display:inline;fill:#171E2B;}
	.st32{display:inline;fill:url(#SVGID_1_);}
	.st33{display:inline;fill:url(#SVGID_00000140734486883653400200000006347627403410531975_);}
	.st34{display:inline;fill:url(#SVGID_00000061441764176953256860000003338168156757257617_);}
	.st35{display:inline;fill-rule:evenodd;clip-rule:evenodd;}
	.st36{display:inline;fill:#1E94AF;}
	.st37{display:inline;fill-rule:evenodd;clip-rule:evenodd;fill:#1E94AF;}
</style>
<g class="st0">
	<path class="st1" d="M1.95,12.15c0-3.5,0-5.3,0.7-6.7c0.6-1.2,1.6-2.2,2.8-2.8c1.4-0.7,3.1-0.7,6.7-0.7h7.7c3.5,0,5.3,0,6.7,0.7
		c1.2,0.6,2.2,1.6,2.8,2.8c0.7,1.4,0.7,3.1,0.7,6.7v7.7c0,3.5,0,5.3-0.7,6.7c-0.6,1.2-1.6,2.2-2.8,2.8c-1.4,0.7-3.1,0.7-6.7,0.7
		h-7.7c-3.5,0-5.3,0-6.7-0.7c-1.2-0.6-2.2-1.6-2.8-2.8c-0.7-1.4-0.7-3.1-0.7-6.7C1.95,19.85,1.95,12.15,1.95,12.15z"/>
	<path class="st2" d="M7.95,22.55v-12.3c0-0.1,0-0.1,0.1-0.1c1.2,0,2.4-0.1,3.6-0.1c2,0,4.1,0.7,4.8,2.7c0.2,0.5,0.3,1,0.3,1.6
		c0,1-0.2,1.9-0.7,2.5c-1.3,1.9-3.6,1.8-5.6,1.8v3.8c0,0.1-0.1,0.2-0.2,0.2L7.95,22.55C7.95,22.75,7.95,22.65,7.95,22.55z
		 M10.45,12.45v4c0.8,0.1,1.6,0.1,2.4-0.2c0.9-0.2,1.3-1,1.3-1.9c0-0.8-0.4-1.5-1.1-1.7C12.35,12.35,11.35,12.35,10.45,12.45z"/>
	<path class="st2" d="M24.05,15.65c-0.4-0.2-0.7-0.3-1.1-0.4c-0.5-0.1-2.5-0.5-2.5,0.5c0,0.6,0.9,0.9,1.3,1c1.4,0.5,3,1.4,3,3.1
		c0,2.2-2.1,3-3.9,3c-0.9,0-1.9-0.1-2.8-0.5c-0.1,0-0.1-0.1-0.1-0.2v-2.1c0-0.1,0.1-0.2,0.2-0.1c0.8,0.5,1.8,0.8,2.8,0.8
		c0.4,0,1.3,0,1.3-0.7c0-0.6-1-0.9-1.4-1c-0.6-0.2-1.1-0.5-1.7-0.9c-0.7-0.5-1.2-1.3-1.2-2.2c0-2,1.9-3,3.7-3c0.8,0,1.7,0.1,2.5,0.4
		c0.1,0,0.1,0.1,0.1,0.3v1.9C24.25,15.65,24.15,15.75,24.05,15.65z"/>
</g>
<g class="st0">
	<path class="st3" d="M1.95,12.15c0-3.5,0-5.3,0.7-6.7c0.6-1.2,1.6-2.2,2.8-2.8c1.4-0.7,3.1-0.7,6.7-0.7h7.7c3.5,0,5.3,0,6.7,0.7
		c1.2,0.6,2.2,1.6,2.8,2.8c0.7,1.4,0.7,3.1,0.7,6.7v7.7c0,3.5,0,5.3-0.7,6.7c-0.6,1.2-1.6,2.2-2.8,2.8c-1.4,0.7-3.1,0.7-6.7,0.7
		h-7.7c-3.5,0-5.3,0-6.7-0.7c-1.2-0.6-2.2-1.6-2.8-2.8c-0.7-1.4-0.7-3.1-0.7-6.7V12.15z"/>
	<path class="st4" d="M15.55,19.65h-4.3l-0.9,2.8c0,0.1-0.1,0.2-0.2,0.2h-2.2c-0.1,0-0.2-0.1-0.1-0.2l3.8-11.1
		c0-0.1,0.1-0.2,0.1-0.4c0.1-0.3,0.1-0.5,0.1-0.8c0-0.1,0.1-0.1,0.1-0.1h3c0.1,0,0.1,0,0.2,0.1l4.3,12.3c0,0.1,0,0.2-0.1,0.2h-2.4
		c-0.1,0-0.2,0-0.2-0.1L15.55,19.65z M11.85,17.25h3c-0.5-1.7-1-3.3-1.5-5C12.85,13.95,12.35,15.55,11.85,17.25z"/>
	<path class="st4" d="M21.75,12.05c-0.2,0-0.4,0-0.6-0.1c-0.2-0.1-0.3-0.2-0.5-0.3c-0.1-0.1-0.2-0.3-0.3-0.5s-0.1-0.4-0.1-0.6
		s0-0.4,0.1-0.6s0.2-0.4,0.3-0.5s0.3-0.2,0.5-0.3s0.4-0.1,0.6-0.1c0.5,0,0.8,0.1,1.1,0.4c0.1,0.1,0.2,0.3,0.3,0.5s0.1,0.4,0.1,0.6
		s0,0.4-0.1,0.6s-0.2,0.4-0.3,0.5s-0.3,0.3-0.5,0.3C22.15,12.05,21.95,12.05,21.75,12.05z M20.45,22.45v-9.2c0-0.1,0.1-0.2,0.2-0.2
		h2.3c0.1,0,0.2,0.1,0.2,0.2v9.2c0,0.1-0.1,0.2-0.2,0.2h-2.3C20.55,22.65,20.45,22.55,20.45,22.45z"/>
</g>
<g class="st0">
	<path class="st5" d="M1.95,12.15c0-3.5,0-5.3,0.7-6.7c0.6-1.2,1.6-2.2,2.8-2.8c1.4-0.7,3.1-0.7,6.7-0.7h7.7c3.5,0,5.3,0,6.7,0.7
		c1.2,0.6,2.2,1.6,2.8,2.8c0.7,1.4,0.7,3.1,0.7,6.7v7.7c0,3.5,0,5.3-0.7,6.7c-0.6,1.2-1.6,2.2-2.8,2.8c-1.4,0.7-3.1,0.7-6.7,0.7
		h-7.7c-3.5,0-5.3,0-6.7-0.7c-1.2-0.6-2.2-1.6-2.8-2.8c-0.7-1.4-0.7-3.1-0.7-6.7V12.15z"/>
	<path class="st6" d="M12.75,18.95h-4.4l-0.9,2.9c0,0.1-0.1,0.2-0.2,0.2h-2.2c-0.1,0-0.2-0.1-0.1-0.2l3.8-11.4
		c0-0.1,0.1-0.2,0.1-0.4c0-0.3,0.1-0.5,0.1-0.8c0-0.1,0.1-0.2,0.1-0.1h3c0.1,0,0.1,0,0.2,0.1l4.3,12.7c0,0.1,0,0.2-0.1,0.2h-2.5
		c-0.1,0-0.2-0.1-0.2-0.1L12.75,18.95z M9.05,16.45h3c-0.5-1.7-1-3.4-1.5-5.2C10.05,13.15,9.65,14.85,9.05,16.45z"/>
	<path class="st6" d="M17.65,21.85v-7.4c0-0.2,0-0.5,0-0.8s0-0.5,0-0.8s0-0.5,0-0.6s0-0.2,0.1-0.2h2c0.4,0,0.4,0.5,0.4,0.8
		c0.4-0.3,0.8-0.6,1.2-0.8c0.5-0.2,0.9-0.3,1.4-0.2c0.4,0,0.7,0.1,1.1,0.2c0.4,0.1,0.8,0.4,1.1,0.7s0.5,0.7,0.7,1.1
		c0.2,0.5,0.3,1.2,0.3,2v5.9c0,0.1-0.1,0.2-0.2,0.2h-2.3c-0.1,0-0.2-0.1-0.2-0.2v-5.7c0-0.3,0-0.7-0.2-1c-0.5-1.2-2.1-1-2.9-0.2v6.9
		c0,0.1,0,0.2-0.2,0.2L17.65,21.85C17.75,22.05,17.65,21.95,17.65,21.85z"/>
</g>
<g class="st0">
	<path class="st7" d="M1.95,12.15c0-3.5,0-5.3,0.7-6.7c0.6-1.2,1.6-2.2,2.8-2.8c1.4-0.7,3.1-0.7,6.7-0.7h7.7c3.5,0,5.3,0,6.7,0.7
		c1.2,0.6,2.2,1.6,2.8,2.8c0.7,1.4,0.7,3.1,0.7,6.7v7.7c0,3.5,0,5.3-0.7,6.7c-0.6,1.2-1.6,2.2-2.8,2.8c-1.4,0.7-3.1,0.7-6.7,0.7
		h-7.7c-3.5,0-5.3,0-6.7-0.7c-1.2-0.6-2.2-1.6-2.8-2.8c-0.7-1.4-0.7-3.1-0.7-6.7V12.15z"/>
	<path class="st8" d="M11.55,10.25v12.3c0,0.1-0.1,0.2-0.2,0.2h-2.3c-0.1,0-0.1-0.1-0.1-0.2v-12.3c0-0.1,0.1-0.2,0.2-0.2h2.3
		C11.45,10.05,11.55,10.15,11.55,10.25z"/>
	<path class="st8" d="M18.25,22.95c-0.9,0-1.7-0.2-2.5-0.5c-1.7-0.8-2.4-2.5-2.4-4.4c0-1.8,0.9-3.5,2.5-4.4c1.1-0.6,2.3-0.8,3.6-0.7
		v-3.8c0-0.1,0-0.1,0.1-0.1h2.4c0.1,0,0.1,0,0.1,0.1v11.4c0,0.5,0,0.9,0.1,1.4c0,0.1,0,0.2-0.1,0.2c-0.6,0.3-1.2,0.5-1.9,0.6
		S18.85,22.85,18.25,22.95z M19.45,20.55v-5.3c-1.7-0.5-3.4,0.8-3.4,2.6C15.95,19.75,17.65,21.05,19.45,20.55z"/>
</g>
<g class="st0">
	<path class="st9" d="M1.95,12.15c0-3.5,0-5.3,0.7-6.7c0.6-1.2,1.6-2.2,2.8-2.8c1.4-0.7,3.1-0.7,6.7-0.7h7.7c3.5,0,5.3,0,6.7,0.7
		c1.2,0.6,2.2,1.6,2.8,2.8c0.7,1.4,0.7,3.1,0.7,6.7v7.7c0,3.5,0,5.3-0.7,6.7c-0.6,1.2-1.6,2.2-2.8,2.8c-1.4,0.7-3.1,0.7-6.7,0.7
		h-7.7c-3.5,0-5.3,0-6.7-0.7c-1.2-0.6-2.2-1.6-2.8-2.8c-0.7-1.4-0.7-3.1-0.7-6.7V12.15z"/>
	<path class="st10" d="M16.55,10.25l-3.5,5.9l3.7,6.3c0.1,0.1,0,0.2-0.1,0.2h-2.7c-0.2,0-0.3,0-0.4-0.1c-0.3-0.5-0.5-1-0.8-1.5
		s-0.5-1-0.8-1.5s-0.6-1-0.8-1.6c-0.3,0.5-0.5,1-0.8,1.5s-0.5,1-0.8,1.5s-0.5,1-0.8,1.5c-0.1,0.1-0.1,0.1-0.3,0.1h-2.6
		c-0.1,0-0.1-0.1-0.1-0.2l3.6-6.1l-3.5-6.1c-0.1-0.1,0-0.2,0.1-0.2h2.6c0.1,0,0.2,0,0.3,0.1c0.2,0.5,0.5,1,0.8,1.5s0.6,1,0.8,1.5
		c0.3,0.5,0.6,1,0.8,1.5c0.3-0.5,0.5-1,0.8-1.5s0.5-1,0.8-1.5s0.5-1,0.8-1.5c0-0.1,0.1-0.2,0.2-0.2h2.5
		C16.55,10.05,16.65,10.25,16.55,10.25z"/>
	<path class="st10" d="M21.95,22.95c-1.7,0-3.4-0.7-4.3-2.2c-0.4-0.7-0.6-1.6-0.6-2.7c0-0.9,0.2-1.8,0.6-2.5c1.1-2,3.3-2.7,5.4-2.5
		v-3.8c0-0.1,0-0.1,0.1-0.1h2.4c0.1,0,0.1,0,0.1,0.1v11.4c0,0.5,0,0.9,0.1,1.4c0,0.1,0,0.2-0.1,0.2
		C24.55,22.65,23.25,22.85,21.95,22.95z M23.15,20.55v-5.3c-1.7-0.5-3.4,0.8-3.4,2.6C19.75,19.75,21.35,21.05,23.15,20.55z"/>
</g>
<g class="st0">
	<path class="st11" d="M30.05,8.7c0-3.7-3-6.7-6.7-6.7H8.65c-3.7,0-6.7,3-6.7,6.7v14.6c0,3.7,3,6.7,6.7,6.7h21.4L30.05,8.7
		L30.05,8.7z"/>
	<path class="st12" d="M17.15,26.6c-0.6,0-1.1-0.1-1.6-0.3c-0.6-0.2-1.1-0.5-1.6-0.8c-0.2-0.2-0.5-0.4-0.7-0.6c0,0-0.1-0.1-0.1,0
		c-0.5,0.1-0.9,0.1-1.4,0.1c-0.4,0-0.7-0.1-1.1-0.2c-0.5-0.1-0.9-0.3-1.3-0.6c-0.6-0.4-1.2-0.9-1.6-1.6c-0.2-0.3-0.4-0.6-0.5-1
		c-0.3-0.6-0.4-1.3-0.4-2c0-0.5,0.1-1,0.2-1.5c0-0.1,0-0.1,0-0.2c-0.5-0.6-0.8-1.2-1.1-1.9c-0.2-0.6-0.3-1.1-0.2-1.7
		c0-1,0.3-1.9,0.9-2.8c0.3-0.5,0.7-1,1.2-1.3c0.5-0.4,1.1-0.7,1.8-0.9c0.1,0,0.2,0,0.2-0.1c0.1,0,0.1,0,0.1-0.1
		c0.1-0.3,0.3-0.7,0.4-1c0.4-0.8,1-1.4,1.8-1.8c0.5-0.3,1-0.5,1.5-0.6s1.1-0.2,1.6-0.1c0.6,0,1.2,0.2,1.8,0.4
		c0.4,0.2,0.7,0.4,1.1,0.6c0.2,0.2,0.5,0.4,0.7,0.6c0,0.1,0.1,0.1,0.2,0.1c0.5-0.1,1-0.1,1.5-0.1s1.1,0.2,1.6,0.4s1,0.5,1.4,0.9
		c0.5,0.4,0.8,0.9,1.1,1.4c0.2,0.4,0.4,0.9,0.5,1.3c0.2,0.7,0.2,1.4,0.1,2.1c0,0.2-0.1,0.5-0.2,0.7c0,0.1,0,0.1,0,0.2
		c0.4,0.4,0.7,0.9,0.9,1.4c0.2,0.5,0.4,1.1,0.4,1.7s0,1.2-0.2,1.8c-0.2,0.5-0.4,1-0.7,1.5c-0.3,0.5-0.8,1-1.3,1.3
		c-0.6,0.4-1.2,0.7-1.8,0.9h-0.1c-0.1,0-0.1,0-0.1,0.1c-0.2,0.7-0.6,1.2-1,1.8c-0.5,0.6-1.1,1-1.8,1.3c-0.5,0.3-1.1,0.4-1.7,0.5
		C17.45,26.5,17.35,26.6,17.15,26.6z M17.95,14.8c-0.7-0.4-1.2-0.7-1.8-1.1c-0.1,0-0.1,0-0.2,0c-0.6,0.4-1.2,0.7-1.9,1.1
		c-0.1,0-0.1,0.1-0.1,0.1c0,0.4,0,0.7,0,1.1s0,0.7,0,1.1c0,0.1,0,0.1,0.1,0.1s0.2,0.1,0.3,0.2c0.6,0.3,1.1,0.6,1.7,1
		c0.1,0,0.1,0,0.1,0c0.2-0.1,0.4-0.2,0.6-0.4c0.1-0.1,0.3-0.2,0.4-0.2c0.3-0.2,0.6-0.3,0.9-0.5c0.1,0,0.1-0.1,0.1-0.1
		c0-0.7,0-1.4,0-2.1C18.15,14.8,18.15,14.8,17.95,14.8z M9.65,13.3c0-0.8,0-1.6,0-2.4c0,0,0,0,0-0.1c-0.4,0.2-0.9,0.4-1.2,0.8
		c-0.4,0.4-0.8,0.9-1,1.4s-0.3,1-0.3,1.5c0,0.4,0.1,0.7,0.2,1.1c0.2,0.6,0.5,1.1,0.9,1.6c0.3,0.3,0.6,0.5,1,0.7
		c0.5,0.3,0.9,0.5,1.4,0.8c0.8,0.5,1.7,1,2.5,1.5h0.1c0.6-0.3,1.1-0.6,1.7-1c0.1,0,0.1-0.1,0-0.1c-0.4-0.2-0.8-0.5-1.2-0.7
		c-0.9-0.5-1.9-1.1-2.8-1.6c-0.2-0.1-0.5-0.3-0.7-0.4s-0.4-0.4-0.4-0.6v-0.1C9.65,14.8,9.65,14,9.65,13.3z M14.65,24.3
		c0.1,0.1,0.2,0.2,0.3,0.2c0.5,0.3,1,0.6,1.6,0.6c0.5,0.1,0.9,0.1,1.4,0c0.7-0.1,1.3-0.4,1.8-0.9c0.4-0.4,0.8-0.8,1-1.4
		c0.2-0.5,0.3-1.1,0.3-1.6c0-1.5,0-3,0-4.5c0-0.1,0-0.1-0.1-0.1c-0.5-0.3-1.1-0.6-1.6-0.9c-0.1-0.1-0.1-0.1-0.1,0.1
		c0,1.6,0,3.2,0,4.8c0,0.2,0,0.5,0,0.7c0,0.1,0,0.1,0,0.2c-0.1,0.2-0.2,0.3-0.3,0.4c-0.4,0.2-0.7,0.4-1.1,0.6
		C16.75,23,15.75,23.6,14.65,24.3z M13.95,12.5c0,0.2,0,0.4,0,0.6c0,0.1,0,0.2,0,0.3c0,0.1,0,0.1,0.1,0c0.6-0.4,1.2-0.7,1.8-1.1
		c0.7-0.4,1.4-0.8,2.1-1.2c0.3-0.2,0.6-0.3,0.9-0.5c0.1-0.1,0.2-0.1,0.4-0.1c0.1,0,0.2,0,0.4,0.1c0.2,0.1,0.5,0.3,0.7,0.4
		c0.9,0.5,1.8,1,2.6,1.5c0.3,0.2,0.6,0.3,0.9,0.5c0.1,0,0.1,0,0.1,0c0.1-0.5,0.1-1.1-0.1-1.6c-0.2-0.6-0.4-1.1-0.8-1.5
		c-0.5-0.6-1.1-1-1.8-1.2c-0.5-0.2-1.1-0.2-1.7-0.2c-0.5,0.1-1,0.2-1.4,0.5c-0.3,0.2-0.6,0.4-1,0.5c-1,0.6-2.1,1.2-3.1,1.8
		c-0.1,0-0.1,0.1-0.1,0.1C13.95,11.9,13.95,12.2,13.95,12.5z M17.25,13c0.3,0.2,0.5,0.3,0.7,0.4c0.9,0.5,1.8,1,2.7,1.6
		c0.5,0.3,1,0.6,1.5,0.8c0.2,0.1,0.3,0.2,0.3,0.4c0,0.1,0,0.2,0,0.3c0,1.6,0,3.1,0,4.7c0,0.1,0,0.1,0,0.2c0,0,0,0.1,0.1,0
		c0.1,0,0.2-0.1,0.3-0.1c0.8-0.4,1.4-0.9,1.8-1.7c0.2-0.5,0.4-0.9,0.4-1.4c0-0.4,0-0.9-0.1-1.3c-0.2-1-0.8-1.7-1.6-2.3
		c-0.2-0.2-0.5-0.3-0.7-0.4c-0.6-0.3-1.2-0.7-1.7-1c-0.6-0.3-1.2-0.7-1.8-1h-0.1C18.45,12.3,17.85,12.6,17.25,13z M11.05,13.1
		c0,0.8,0,1.6,0,2.4c0,0.1,0,0.1,0.1,0.2c0.4,0.3,0.9,0.5,1.3,0.8c0.1,0.1,0.2,0.1,0.3,0.2c0.1,0,0.1,0,0.1,0v-0.1
		c0-1.8,0-3.5,0-5.3c0-0.1,0-0.1,0-0.2c0-0.2,0.1-0.4,0.3-0.5c0.1,0,0.1-0.1,0.2-0.1c0.4-0.3,0.9-0.5,1.3-0.8
		c0.8-0.5,1.6-0.9,2.4-1.4c0.1-0.1,0.3-0.2,0.4-0.2s0.1,0,0-0.1l-0.1-0.1c-0.8-0.6-1.7-0.8-2.6-0.8c-0.4,0-0.9,0.1-1.3,0.3
		c-0.4,0.2-0.8,0.4-1.1,0.7c-0.5,0.4-0.8,0.9-1,1.5c-0.2,0.5-0.2,1-0.2,1.5C11.05,11.7,11.05,12.4,11.05,13.1z M18.15,19.7
		c0-0.3,0-0.6,0-0.9v-0.1c0,0,0-0.1-0.1,0c-0.8,0.5-1.7,1-2.5,1.5c-0.8,0.4-1.5,0.9-2.3,1.3c-0.3,0.2-0.5,0.1-0.8,0
		c-0.4-0.3-0.9-0.5-1.3-0.7c-1-0.6-1.9-1.1-2.9-1.7c0,0,0,0-0.1,0c-0.1,0.4-0.1,0.8,0,1.2c0.1,0.5,0.3,1,0.5,1.4
		c0.2,0.3,0.5,0.6,0.8,0.9c0.3,0.2,0.6,0.4,0.9,0.6c0.4,0.2,0.9,0.3,1.3,0.4c0.4,0,0.7,0,1.1,0c0.5-0.1,0.9-0.3,1.3-0.5
		c0.6-0.4,1.3-0.7,2-1.1c0.6-0.4,1.3-0.7,1.9-1.1c0.1,0,0.1-0.1,0.1-0.2C18.15,20.3,18.15,20,18.15,19.7z"/>
</g>
<g class="st0">
	<path class="st13" d="M17.05,16.25c0-2.2,1.8-4,4-4s4,1.8,4,4s-1.8,4-4,4S17.05,18.45,17.05,16.25z"/>
	<path class="st14" d="M9.05,24.25c0-2.2,1.8-4,4-4h4v4c0,2.2-1.8,4-4,4S9.05,26.45,9.05,24.25z"/>
	<path class="st15" d="M17.05,4.25v8h4c2.2,0,4-1.8,4-4s-1.8-4-4-4H17.05z"/>
	<path class="st16" d="M9.05,8.25c0,2.2,1.8,4,4,4h4v-8h-4C10.85,4.25,9.05,6.05,9.05,8.25z"/>
	<path class="st17" d="M9.05,16.25c0,2.2,1.8,4,4,4h4v-8h-4C10.85,12.25,9.05,14.05,9.05,16.25z"/>
</g>
<g class="st0">
	<path class="st18" d="M6.32,20.2l-1.5,0.5L4.72,25l5.1-1.8C8.12,22.6,6.82,21.6,6.32,20.2z"/>
	<path class="st19" d="M7.12,15.6l-5.1,1.8l2.9,3.2l1.5-0.5C5.82,18.8,6.12,17.2,7.12,15.6z"/>
	<path class="st20" d="M15.62,9.5c-6.5,2.3-10.6,7.1-9.3,10.7l23.4-8.4C28.42,8.2,22.12,7.1,15.62,9.5z"/>
	<path class="st21" d="M20.42,22.5c6.5-2.3,10.7-7.1,9.3-10.7l-23.4,8.4C7.62,23.8,13.92,24.8,20.42,22.5z"/>
	<path class="st19" d="M29.72,11.8l-23.4,8.4c0.5,1.2,2.2,1.9,4.7,1.9c2.4,0,5.5-0.6,8.7-1.7C26.12,18,30.62,14.2,29.72,11.8z"/>
	<path class="st18" d="M25.12,9.9c-2.4,0-5.5,0.6-8.7,1.7c-6.5,2.3-11,6.1-10.1,8.5l23.4-8.4C29.32,10.5,27.52,9.9,25.12,9.9z"/>
	<path class="st21" d="M23.82,25.2c-0.7,0-1.7-0.6-3-1.8c-1.6-1.4-3.3-3.5-5-5.9s-3.1-4.7-3.9-6.7c-0.9-2.1-1-3.4-0.4-3.8
		c0.1-0.1,0.3-0.1,0.5-0.1c0.5,0,1.6,0.4,3.5,2.2v0.1c0,0.1,0,0.3,0,0.4v0.3l-0.2-0.2c-2-2-2.9-2.2-3.2-2.2c-0.1,0-0.1,0-0.2,0
		c-0.3,0.2-0.3,1.1,0.6,3.2c0.8,1.9,2.2,4.2,3.8,6.6c1.7,2.3,3.4,4.4,4.9,5.8c1.7,1.5,2.4,1.7,2.6,1.7c0.1,0,0.2,0,0.2-0.1
		c0.3-0.2,0.3-1.2-0.7-3.4v-0.1l0.1-0.1c0.1-0.1,0.2-0.1,0.3-0.2l0.1-0.1l0.1,0.1c0.7,1.6,1.3,3.5,0.5,4.1
		C24.12,25.2,24.02,25.2,23.82,25.2z"/>
	<path class="st21" d="M20.62,22.4v0.1c-0.2,2-0.6,4.4-1.7,4.5c0,0,0,0-0.1,0c-0.8,0-1.5-1.1-2.1-3.2c-0.6-2-1.1-4.7-1.4-7.6
		s-0.3-5.6,0-7.7c0.3-2.3,0.8-3.5,1.6-3.5c0,0,0,0,0.1,0c0.6,0,1.4,0.6,2.2,3.5l-0.6,0.1c-0.3-1-0.6-1.7-0.9-2.3
		c-0.3-0.5-0.6-0.8-0.8-0.8c-0.3,0-0.8,0.8-1.1,3c-0.3,2-0.3,4.7,0,7.6c0.3,2.8,0.7,5.5,1.3,7.5c0.3,0.9,0.6,1.6,0.9,2.1
		s0.5,0.7,0.7,0.7c0.3,0,0.9-0.9,1.2-3.9L20.62,22.4z"/>
</g>
<g class="st0">
	<path class="st22" d="M6,27.25l-2-25h24l-2,25l-10,3L6,27.25z"/>
	<path class="st23" d="M26,4.25H16v24.5l8-2.5L26,4.25z"/>
	<path class="st24" d="M19.5,16.75h-10L9,13.25l8-2.5H9l-0.5-3H24l-0.5,3.5l-6.5,2.5h6l-1,9.5l-6,2l-6-2l-0.5-5h3l0.5,2.5l3,1l3-1
		L19.5,16.75z"/>
</g>
<g>
	<path class="st25" d="M6,27.25l-2-25h24l-2,25l-10,3L6,27.25z"/>
	<path class="st26" d="M26,4.25H16v24.5l8-2.5L26,4.25z"/>
	<path class="st27" d="M9.5,16.75l-1-9.5H24l-0.5,3h-12l0.5,3.5h11l-1,9.5l-6,2l-6-2l-0.5-5h3l0.5,2.5l3,1l3-1l0.5-4H9.5z"/>
</g>
<g class="st0">
	<path class="st28" d="M30,2H2v28h28V2z"/>
	<path class="st29" d="M19,25.3l2.1-1.4c0.2,0.5,1.2,1.7,2.5,1.7s1.9-0.7,1.9-1.2c0-1.3-1.3-1.7-2-1.9c-0.1,0-0.2-0.1-0.2-0.1
		s-0.1,0-0.1-0.1c-0.7-0.3-3.3-1.3-3.3-4.1c0-3.2,3.1-3.5,3.8-3.5c0.5,0,2.6,0.1,3.7,2.1l-2,1.4C25,17.3,24.2,17,23.8,17
		c-1.1,0-1.3,0.8-1.3,1.2c0,1,1.2,1.5,2.2,1.9c0.3,0.1,0.5,0.2,0.7,0.3c1.1,0.5,2.7,1.4,2.7,4.1c0,1.4-1.1,3.5-4,3.5
		C20.2,28,19.2,25.7,19,25.3z"/>
	<path class="st29" d="M9,25.6l2.1-1.4c0.2,0.5,0.8,1.4,1.8,1.4c0.9,0,1.4-1,1.4-1.4V15h2.6v9.2c0,1.3-0.7,3.8-3.8,3.8
		C10.4,28,9.2,26.3,9,25.6z"/>
</g>
<g class="st0">
	<path class="st30" d="M25.07,15.4c-0.3,0.7-0.8,1.4-1.3,1.9c-1.1,1.2-2.5,2-4.1,2.3c-1.1,0.2-2.1,0.3-3.2,0.1
		c-2.7-0.3-4.8-1.7-6.5-3.9c-1.2-1.5-1.8-3.3-1.8-5.2c0-1.5,0.4-2.8,1.3-4c0.3-0.3,0.6-0.7,0.8-1l0,0c-0.5,1.1-0.7,2.3-0.6,3.5
		c0.1,1.6,0.7,3.1,1.7,4.4c1.4,1.9,3.2,3.2,5.4,3.8c2,0.5,4.1,0.5,6-0.4C23.67,16.6,24.37,16.1,25.07,15.4
		C24.97,15.4,24.97,15.4,25.07,15.4z"/>
	<path class="st30" d="M25.47,11c-0.5,1.2-1.3,2.1-2.4,2.7c-1.1,0.6-2.2,0.7-3.4,0.7c-2-0.1-3.6-1-4.9-2.5c-1.1-1.2-1.6-2.7-1.5-4.4
		c0-0.8,0.3-1.6,0.7-2.3c0.2-0.4,0.5-0.7,0.8-1.1c0.1,0,0,0.1,0,0.1c-0.7,1.7-0.5,3.3,0.4,4.9c1.2,2.1,3,3.3,5.3,3.6
		c1.7,0.2,3.2-0.1,4.5-1.3C25.07,11.4,25.27,11.2,25.47,11L25.47,11z"/>
	<path class="st31" d="M11.07,27c-0.5,0-1,0-1.5,0c-0.9-0.1-1.4-0.6-1.5-1.5c-0.1-1.2,0.2-2.3,1.2-3.1c0.7-0.6,2-0.7,2.8-0.3
		c0.7,0.4,1,1.2,0.9,2c-0.1,0.6-0.3,1.1-0.5,1.7c-0.1,0.2,0,0.2,0.2,0.2c0.4,0,0.4,0,0.3,0.4c-0.2,0.7-0.2,0.7-0.8,0.7
		C11.67,27,11.37,27,11.07,27z M10.57,26L10.57,26c0.1,0,0.3,0,0.4,0c0.2,0,0.2-0.1,0.3-0.2c0.1-0.4,0.2-0.9,0.4-1.3
		c0.1-0.3,0.1-0.5,0.1-0.8s-0.1-0.5-0.4-0.7c-0.5-0.3-1.3-0.1-1.6,0.4c-0.4,0.5-0.5,1.2-0.4,1.8c0,0.4,0.3,0.7,0.7,0.7
		C10.17,26,10.37,26,10.57,26z"/>
	<path class="st31" d="M19.77,25.4c-0.4,0-0.8,0-1.2,0c-0.1,0-0.2,0.1-0.2,0.2c0,0.3,0.1,0.4,0.4,0.4c0.2,0,0.3,0,0.5,0
		c0.5,0,0.9,0,1.4,0c0.2,0,0.2,0,0.2,0.2c-0.1,0.2-0.1,0.4-0.1,0.7c0,0.1-0.1,0.2-0.2,0.2c-0.7,0-1.3,0-2,0c-0.1,0-0.3,0-0.4-0.1
		c-0.6-0.2-0.9-0.5-0.9-1.1c0-0.7,0.1-1.4,0.5-2.1c0.4-0.7,1-0.9,1.7-0.9c0.2,0,0.5,0,0.7,0c0.7,0.1,1.1,0.5,1.1,1.3
		c0,0.3-0.1,0.7-0.2,1c0,0.1-0.1,0.2-0.2,0.2C20.57,25.4,20.17,25.4,19.77,25.4z M19.37,24.5c0.2,0,0.4,0,0.6,0c0.1,0,0.2,0,0.2-0.1
		c0-0.2,0-0.3-0.1-0.4c-0.4-0.3-1.2-0.1-1.3,0.4c-0.1,0.1,0,0.2,0.1,0.2C19.07,24.5,19.27,24.5,19.37,24.5z"/>
	<path class="st31" d="M15.37,27c-0.3,0-0.7,0-1,0c-0.6,0-0.9-0.4-1-1c0-0.4,0-0.8,0.1-1.1c0.1-0.6,0.2-1.1,0.4-1.7
		c0-0.2,0.1-0.2,0.3-0.2s0.5,0,0.7,0c0.1,0,0.2,0,0.1,0.2c-0.1,0.7-0.3,1.4-0.4,2.1c0,0.2-0.1,0.3,0,0.5c0,0.2,0.2,0.3,0.4,0.4
		c0.2,0,0.5,0,0.7,0s0.2-0.1,0.2-0.2c0.1-0.7,0.3-1.3,0.4-2c0-0.2,0.1-0.4,0.1-0.7c0-0.2,0.1-0.3,0.3-0.2c0.2,0,0.4,0,0.6,0
		c0.2,0,0.2,0,0.2,0.2c-0.1,0.7-0.3,1.3-0.4,2c-0.1,0.5-0.2,1.1-0.3,1.6c0,0.2-0.1,0.3-0.3,0.3C15.97,27,15.67,27,15.37,27L15.37,27
		z"/>
	<path class="st30" d="M24.87,8c-0.2,0.4-0.4,0.7-0.7,0.9c-0.7,0.6-1.5,0.8-2.5,0.8c-1.8-0.1-3.1-1-3.8-2.6
		c-0.6-1.3-0.4-2.6,0.6-3.8c-0.1,0.3-0.1,0.5-0.2,0.7c-0.2,1,0.1,2,0.7,2.8c0.9,1.3,2.3,2,3.9,2C23.37,8.7,24.07,8.7,24.87,8z"/>
	<path class="st31" d="M25.87,24.9c0.1,0,0.1-0.1,0.2-0.2c0.5-0.7,1-1.4,1.5-2.2c0.1-0.1,0.2-0.2,0.3-0.2c0.3,0,0.6,0,1,0
		c0.1,0,0.1,0,0.2,0c0,0.1,0,0.1-0.1,0.2c-0.7,1-1.5,2-2.2,3c-0.3,0.4-0.5,0.8-0.6,1.2c0,0.2-0.1,0.3-0.4,0.3c-0.2,0-0.5,0-0.8,0
		c-0.2,0-0.2-0.1-0.1-0.2c0.2-0.6,0.2-1.1,0-1.7c-0.1-0.3-0.1-0.5-0.2-0.8c0-0.1,0-0.2,0.1-0.2c0.3,0,0.6,0,0.9,0
		c0.1,0,0.2,0.1,0.2,0.2C25.77,24.5,25.77,24.7,25.87,24.9z"/>
	<path class="st31" d="M23.67,23c0.4,0,0.8,0,1.2,0c0.5,0,0.8,0.4,0.8,0.9c0,0.1-0.1,0.1-0.2,0.1c-0.7,0-1.3,0-2,0
		c-0.3,0-0.3-0.1-0.4,0.3c-0.2,0.8-0.4,1.7-0.5,2.5c0,0.2-0.1,0.3-0.3,0.2c-0.2,0-0.4,0-0.6,0c-0.3,0-0.3,0-0.2-0.3
		c0.2-0.7,0.3-1.5,0.5-2.2c0.1-0.4,0.2-0.9,0.3-1.3c0-0.2,0.1-0.2,0.3-0.2C22.87,23,23.27,23,23.67,23L23.67,23z"/>
	<path class="st31" d="M5.27,28.7c-0.1,0-0.3,0-0.4,0c-0.1,0-0.2,0-0.1-0.1c0.1-0.2,0.1-0.5,0.2-0.8c0-0.1,0.1-0.1,0.2-0.1
		c0.5,0,0.7-0.2,0.8-0.7c0.1-0.3,0.1-0.7,0.2-1c0.1-0.5,0.2-1,0.3-1.6c0-0.1,0.1-0.2,0.2-0.2c0.3,0,0.5,0,0.8,0c0.1,0,0.2,0,0.1,0.2
		c-0.2,1.1-0.4,2.2-0.7,3.2c0,0.1,0,0.1-0.1,0.2c-0.3,0.7-0.6,0.9-1.3,0.9C5.37,28.7,5.37,28.7,5.27,28.7L5.27,28.7z"/>
	<path class="st31" d="M7.07,23.9c-0.1,0-0.3,0-0.4,0c-0.1,0-0.1,0-0.1-0.1c0.1-0.2,0.1-0.5,0.2-0.7c0-0.1,0.1-0.1,0.2-0.1
		c0.3,0,0.6,0,0.8,0c0.1,0,0.2,0.1,0.1,0.2c-0.1,0.2-0.1,0.4-0.1,0.7c0,0.1-0.1,0.2-0.2,0.2C7.37,23.9,7.27,23.9,7.07,23.9z"/>
	<path class="st30" d="M24.97,15.3C24.97,15.3,25.07,15.3,24.97,15.3C25.07,15.3,25.07,15.4,24.97,15.3
		C24.97,15.4,24.97,15.4,24.97,15.3z"/>
	<path class="st30" d="M10.27,5.7L10.27,5.7C10.37,5.7,10.27,5.7,10.27,5.7L10.27,5.7z"/>
	<path class="st30" d="M25.47,11L25.47,11L25.47,11L25.47,11z"/>
</g>
<g class="st0">
	
		<linearGradient id="SVGID_1_" gradientUnits="userSpaceOnUse" x1="25.8125" y1="674.8854" x2="25.8125" y2="702.8857" gradientTransform="matrix(1 0 0 1 0 -672.8)">
		<stop  offset="0" style="stop-color:#32B5F1"/>
		<stop  offset="1" style="stop-color:#2B9FED"/>
	</linearGradient>
	<path class="st32" d="M23.01,3.16c0-0.9-1-0.9-1.4-0.8c0.6-0.5,1.3-0.4,1.6-0.2l5.9,2.9c0.6,0.3,0.9,0.9,0.9,1.5v19.1
		c0,0.6-0.4,1.2-0.9,1.5l-5.6,2.6c-0.4,0.2-1.2,0.6-1.9,0c0.9,0.2,1.3-0.5,1.4-0.9V3.16z"/>
	
		<linearGradient id="SVGID_00000088119153579202841820000016417931028162469253_" gradientUnits="userSpaceOnUse" x1="22.8981" y1="678.3723" x2="2.918" y2="695.1432" gradientTransform="matrix(1 0 0 1 0 -672.8)">
		<stop  offset="0" style="stop-color:#0F6FB3"/>
		<stop  offset="0.2706" style="stop-color:#1279B7"/>
		<stop  offset="0.4214" style="stop-color:#1176B5"/>
		<stop  offset="0.6182" style="stop-color:#0E69AC"/>
		<stop  offset="0.8553" style="stop-color:#0F70AF"/>
		<stop  offset="1" style="stop-color:#0F6DAD"/>
	</linearGradient>
	<path style="display:inline;fill:url(#SVGID_00000088119153579202841820000016417931028162469253_);" d="M21.61,2.36
		c0.5-0.1,1.4,0,1.4,0.8v6.6l-18,13.5c-0.3,0.2-0.8,0.2-1-0.1l-1.8-2c-0.3-0.3-0.3-0.8,0-1.1L21.61,2.36z"/>
	
		<linearGradient id="SVGID_00000139981806327941034110000018030874697289764281_" gradientUnits="userSpaceOnUse" x1="3.0077" y1="682.9709" x2="22.9317" y2="699.468" gradientTransform="matrix(1 0 0 1 0 -672.8)">
		<stop  offset="0" style="stop-color:#1791D2"/>
		<stop  offset="1" style="stop-color:#1173C5"/>
	</linearGradient>
	<path style="display:inline;fill:url(#SVGID_00000139981806327941034110000018030874697289764281_);" d="M23.01,22.46l-18-13.6
		c-0.3-0.2-0.8-0.2-1,0.1l-1.8,2c-0.3,0.3-0.3,0.8,0,1.1l19.3,17.7c0.9,0.2,1.3-0.5,1.4-0.9v-6.4L23.01,22.46L23.01,22.46z"/>
</g>
<g class="st0">
	<path class="st35" d="M15.95,2.54c-7.6,0-13.8,6.2-13.8,13.8c0,6.1,4,11.3,9.5,13.1c0.7,0.1,1-0.3,1-0.7c0-0.3,0-1.4,0-2.6
		c-3.5,0.6-4.4-0.8-4.7-1.6c-0.2-0.4-0.8-1.6-1.4-2c-0.5-0.3-1.2-0.9,0-0.9c1.1,0,1.9,1,2.1,1.4c1.2,2.1,3.2,1.5,4,1.1
		c0.1-0.9,0.5-1.5,0.9-1.9c-3.1-0.3-6.3-1.5-6.3-6.8c0-1.5,0.5-2.8,1.4-3.7c-0.1-0.3-0.6-1.8,0.1-3.7c0,0,1.2-0.4,3.8,1.4
		c1.1-0.3,2.3-0.5,3.5-0.5s2.4,0.2,3.5,0.5c2.6-1.8,3.8-1.4,3.8-1.4c0.8,1.9,0.3,3.3,0.1,3.7c0.9,1,1.4,2.2,1.4,3.7
		c0,5.3-3.2,6.5-6.3,6.8c0.5,0.4,0.9,1.3,0.9,2.6c0,1.9,0,3.3,0,3.8c0,0.4,0.3,0.8,1,0.7c5.5-1.8,9.4-7,9.4-13.1
		C29.75,8.74,23.55,2.54,15.95,2.54z"/>
</g>
<g class="st0">
	<path class="st36" d="M18.6,15.94c0-1.4-1.2-2.6-2.7-2.6s-2.7,1.2-2.7,2.6c0,1.4,1.2,2.6,2.7,2.6S18.6,17.34,18.6,15.94z"/>
	<path class="st37" d="M24.7,11.14c0.6-2.2,1.3-6.4-1.2-7.8c-2.5-1.4-5.7,1.3-7.5,2.9c-1.7-1.6-5-4.3-7.6-2.8
		c-2.5,1.4-1.7,5.5-1.1,7.7c-2.3,0.6-6.3,2-6.3,4.8s4,4.3,6.3,5c-0.6,2.3-1.3,6.3,1.2,7.7s5.8-1.2,7.6-2.8c1.7,1.6,4.9,4.2,7.4,2.8
		s1.9-5.5,1.3-7.7c2.2-0.6,6.2-2.1,6.2-4.9C31,13.14,26.9,11.74,24.7,11.14z M24.4,19.64c-0.4-1.2-0.9-2.4-1.5-3.7
		c0.6-1.2,1.1-2.5,1.5-3.6c1.7,0.5,5.4,1.6,5.4,3.6C29.7,18.04,26.1,19.14,24.4,19.64z M22.8,27.44c-1.9,1-4.6-1.5-5.9-2.6
		c0.8-0.9,1.7-1.9,2.5-3.1c1.5-0.1,2.8-0.3,4.1-0.6C23.9,22.74,24.7,26.44,22.8,27.44z M9.1,27.44c-1.9-1-1-4.6-0.6-6.3
		c1.2,0.3,2.6,0.5,4,0.6c0.8,1.1,1.7,2.2,2.6,3.1C14,25.84,11,28.54,9.1,27.44z M2.2,15.94c0-2.1,3.7-3.2,5.4-3.6
		c0.4,1.2,0.9,2.4,1.5,3.7c-0.6,1.3-1.1,2.5-1.5,3.7C6,19.24,2.2,18.04,2.2,15.94z M9.1,4.44c1.9-1,4.8,1.5,6,2.7
		c-0.9,0.9-1.7,1.9-2.6,3.1c-1.4,0.1-2.8,0.3-4,0.6C8,8.94,7.2,5.54,9.1,4.44z M20.3,11.54c1,0.1,1.9,0.3,2.7,0.5
		c-0.3,0.8-0.6,1.6-1,2.5C21.6,13.44,21,12.44,20.3,11.54z M16,7.94c0.6,0.6,1.2,1.3,1.8,2.1c-1.2-0.1-2.4-0.1-3.5,0
		C14.8,9.34,15.4,8.64,16,7.94z M9.8,14.44c-0.4-0.9-0.7-1.7-1-2.5c0.9-0.2,1.8-0.3,2.7-0.5C10.9,12.44,10.4,13.44,9.8,14.44z
		 M11.6,20.44c-1-0.1-1.9-0.3-2.8-0.4c0.3-0.8,0.6-1.7,1-2.6C10.4,18.44,11,19.44,11.6,20.44z M16,23.94c-0.6-0.6-1.2-1.3-1.8-2.1
		c1.2,0,2.4,0,3.6,0C17.2,22.64,16.6,23.34,16,23.94z M22.1,17.34c0.4,0.9,0.7,1.7,1,2.6c-0.9,0.2-1.8,0.3-2.8,0.5
		C21,19.44,21.6,18.44,22.1,17.34z M18.7,20.54c-1.8,0.1-3.6,0.1-5.5,0c-1-1.5-2-3-2.7-4.6c0.8-1.6,1.7-3.1,2.7-4.6
		c1.8-0.1,3.7-0.1,5.5,0c1,1.5,1.9,3,2.7,4.6C20.6,17.54,19.7,19.04,18.7,20.54z M22.8,4.44c1.9,1,1,4.8,0.6,6.4
		c-1.2-0.3-2.6-0.5-4-0.6c-0.8-1.1-1.7-2.2-2.5-3.1C18.1,5.94,20.9,3.34,22.8,4.44z"/>
</g>
</svg>
